<svg version="1.1" xmlns="http://www.w3.org/2000/svg" xmlns:xlink="http://www.w3.org/1999/xlink" width="280" height="279.416" enable-background="new 340 140 280 279.416" xml:space="preserve"><rect id="backgroundrect" width="100%" height="100%" x="0" y="0" fill="none" stroke="none"/>

<g class="currentLayer" style=""><title>Layer 1</title><path d="M276.3636169433594,160.81748962402344 v-51.33300018310547 l-31.5,-5.25 c-2.3329999446868896,-8.75 -5.833000183105469,-16.91699981689453 -9.916999816894531,-23.91699981689453 L253.61361694335938,54.65150451660156 l-36.16699981689453,-36.75 l-26.25,18.08300018310547 c-7.583000183105469,-4.083000183105469 -15.75,-7.583000183105469 -23.916000366210938,-9.916999816894531 L162.03060913085938,-4.8484954833984375 h-51.33399963378906 l-5.25,31.5 c-8.75,2.3329999446868896 -16.33300018310547,5.833000183105469 -23.916000366210938,9.916000366210938 L55.863616943359375,18.4844970703125 L19.113616943359375,54.65150451660156 l18.66699981689453,25.666000366210938 c-4.083000183105469,7.584000110626221 -7.583000183105469,15.75 -9.916999816894531,24.5 l-31.5,4.666999816894531 v51.33300018310547 l31.5,5.25 c2.3329999446868896,8.75 5.833000183105469,16.333999633789062 9.916999816894531,23.91699981689453 l-18.66699981689453,26.25 l36.16699981689453,36.16699981689453 l26.25,-18.66699981689453 c7.583000183105469,4.083000183105469 15.75,7.583000183105469 24.5,9.916999816894531 l5.25,30.916000366210938 h51.33300018310547 l5.25,-31.5 c8.166999816894531,-2.3329999446868896 16.33300018310547,-5.833000183105469 23.91699981689453,-9.916000366210938 l26.25,18.666000366210938 l36.16600036621094,-36.16600036621094 l-18.666000366210938,-26.25 c4.083000183105469,-7.584000110626221 7.583000183105469,-15.166999816894531 9.916000366210938,-23.91699981689453 L276.3636169433594,160.81748962402344 zM136.36361694335938,188.81748962402344 c-29.75,0 -53.66699981689453,-23.916000366210938 -53.66699981689453,-53.66600036621094 s24.5,-53.66699981689453 53.66699981689453,-53.66699981689453 S190.03060913085938,105.40150451660156 190.03060913085938,135.15150451660156 S166.11361694335938,188.81748962402344 136.36361694335938,188.81748962402344 z" id="svg_1" class="selected" fill="#f4b0d9" fill-opacity="1"/></g></svg>